<svg width="18" height="10" viewBox="0 0 18 10" fill="none" xmlns="http://www.w3.org/2000/svg">
<g clip-path="url(#clip0_13_50)">
<path d="M18 7.68546V9.2423C18 9.39057 17.9599 9.52511 17.8796 9.64592C17.7993 9.76673 17.6922 9.86284 17.5584 9.93422C17.43 9.99463 17.2962 10.0139 17.157 9.99188C17.0178 9.96992 16.8894 9.915 16.7716 9.82714L9 3.31149L1.22837 9.82714C1.11062 9.915 0.98216 9.96992 0.842998 9.99188C0.703837 10.0139 0.570028 9.99463 0.441571 9.93422C0.307762 9.86284 0.200713 9.76673 0.120428 9.64592C0.0401423 9.52511 1.39258e-06 9.39057 1.39258e-06 9.2423V7.68546C1.39258e-06 7.58112 0.0240841 7.47678 0.0722554 7.37245C0.125779 7.26262 0.195361 7.17201 0.280999 7.10062L8.51829 0.181342C8.6628 0.060529 8.82337 0.000122384 9 0.000122384C9.17663 0.000122384 9.3372 0.060529 9.48171 0.181342L17.719 7.10062C17.8046 7.17201 17.8742 7.26262 17.9277 7.37245C17.9759 7.47678 18 7.58112 18 7.68546Z" fill="#4F5660"/>
</g>
<defs>
<clipPath id="clip0_13_50">
<rect width="18" height="10" fill="white" transform="matrix(-1 0 0 -1 18 10)"/>
</clipPath>
</defs>
</svg>
